#define icon_width 24
#define icon_height 24
static unsigned char icon_bits[] = {
   0x00, 0xff, 0x00, 0xe0, 0xff, 0x07, 0xf0, 0xff, 0x0f, 0xf8, 0xd7, 0x1f,
   0xfc, 0x01, 0x3f, 0x7c, 0x00, 0x3c, 0x3c, 0x00, 0x3c, 0x3e, 0x00, 0x78,
   0x1e, 0x00, 0x7e, 0x1e, 0x80, 0x7f, 0x1e, 0xc0, 0x7f, 0x1e, 0xe0, 0x7f,
   0x1e, 0x80, 0x7f, 0x1e, 0x00, 0x7e, 0x3e, 0x00, 0x78, 0x3c, 0x00, 0x3c,
   0x7c, 0x00, 0x3c, 0xfc, 0x01, 0x3f, 0xf8, 0xff, 0x1f, 0xf8, 0xff, 0x1f,
   0xe0, 0xff, 0x07, 0x80, 0xff, 0x01, 0x00, 0x00, 0x00, 0x00, 0x00, 0x00 };
